<?xml version="1.0" encoding="UTF-8"?>
<svg id="Layer_1" data-name="Layer 1" xmlns="http://www.w3.org/2000/svg" viewBox="0 0 441.4 441.37">
  <defs>
    <style>
      .cls-1 {
        fill: #194e27;
      }

      .cls-1, .cls-2 {
        stroke: #010101;
        stroke-miterlimit: 10;
      }

      .cls-3 {
        fill: #010101;
      }

      .cls-3, .cls-4, .cls-5 {
        stroke-width: 0px;
      }

      .cls-4, .cls-2 {
        fill: #fff;
      }

      .cls-5 {
        fill: #e72425;
      }
    </style>
  </defs>
  <g>
    <circle class="cls-1" cx="217.79" cy="217.79" r="149.66"/>
    <polygon class="cls-2" points="221.34 148.79 298.34 197.79 298.34 286.79 142.34 286.79 142.34 198.79 221.34 148.79"/>
    <path class="cls-3" d="m131.8,184.64v106.48h177.79v-106.48l-88.9-57.47-88.9,57.47Zm156.04,84.72h-40.14c-11.29,0-21.17-8.07-22.91-19.23-.22-1.41-.22-2.26-.22-2.26,24.18,18.57,47.59-11.03,31.53-30.76-8.71-11.03-29.21-18.38-35.4-31.72-6.19,13.35-26.7,20.7-35.4,31.72-16.06,19.73,7.35,49.33,31.53,30.76,0,0,0,.86-.22,2.26-1.75,11.16-11.62,19.23-22.91,19.23h-40.14v-72.88l67.14-43.41,67.14,43.41v72.88Z"/>
    <path class="cls-3" d="m441.14,209.82c-2.47-51.24-22.37-99.3-56.86-137.31l.19-.19-7.67-7.66s-.02-.02-.03-.03l-7.69-7.7-.19.2C330.88,22.64,282.82,2.74,231.58.26v-.26h-21.76v.26c-51.24,2.47-99.3,22.38-137.31,56.87l-.19-.2-7.69,7.7s-.02.02-.03.03l-7.67,7.66.19.19C22.64,110.53,2.74,158.59.26,209.82h-.26v21.76h.26c2.47,51.22,22.38,99.27,56.86,137.28l-.19.19,7.69,7.69,7.69,7.7.19-.19c37.99,34.49,86.05,54.39,137.32,56.86v.26h21.76v-.26c51.27-2.47,99.33-22.37,137.31-56.86l.19.19,7.69-7.7s.02-.02.03-.03l7.66-7.66-.19-.19c34.49-38.01,54.39-86.06,56.86-137.28h.26v-21.76h-.26Zm-21.78,0h-45.22c-2.32-33.38-15.28-64.68-37.25-89.95l10.33-10.32,21.65-21.64c30.41,33.88,48.06,76.48,50.49,121.91Zm-105.28,104.26l-.03.03c-24.94,24.92-58.09,38.65-93.35,38.65s-68.41-13.73-93.35-38.65l-.03-.03c-24.94-24.94-38.68-58.11-38.68-93.38s13.74-68.44,38.68-93.41l.03-.03c24.94-24.92,58.09-38.65,93.35-38.65s68.41,13.73,93.35,38.65l.03.03c24.95,24.97,38.69,58.15,38.69,93.41s-13.74,68.44-38.68,93.38Zm39.4-241.56l-28.31,28.29-3.67,3.67c-25.25-21.97-56.54-34.94-89.93-37.25V22.05c45.43,2.43,88.03,20.07,121.9,50.48ZM209.82,22.05v45.18c-33.39,2.32-64.68,15.28-89.93,37.25l-31.97-31.95c33.88-30.41,76.48-48.05,121.91-50.48ZM72.53,87.91l28.94,28.93,3.03,3.03c-21.97,25.27-34.93,56.57-37.25,89.95H22.05c2.43-45.43,20.08-88.03,50.49-121.91ZM22.05,231.58h45.21c2.32,33.39,15.28,64.68,37.25,89.93l-31.97,31.95c-30.41-33.87-48.05-76.47-50.49-121.88Zm65.87,137.27l31.98-31.96c25.25,21.97,56.55,34.94,89.93,37.25v45.18c-45.45-2.43-88.06-20.07-121.91-50.48Zm143.66,50.48v-45.18c33.39-2.32,64.68-15.28,89.93-37.25l31.98,31.96c-33.85,30.41-76.46,48.05-121.91,50.48Zm137.29-65.86l-25.83-25.81-6.15-6.14c21.97-25.24,34.93-56.54,37.25-89.93h45.21c-2.43,45.41-20.08,88.01-50.49,121.88Z"/>
  </g>
  <g>
    <path class="cls-4" d="m104.51,119.87l-3.03-3.03-28.94-28.93c-30.41,33.88-48.05,76.48-50.49,121.91h45.22c2.32-33.38,15.28-64.68,37.25-89.95Z"/>
    <path class="cls-4" d="m325.18,100.82l28.31-28.29c-33.88-30.41-76.48-48.05-121.9-50.48v45.18c33.39,2.32,64.68,15.28,89.93,37.25l3.67-3.67Z"/>
    <path class="cls-5" d="m336.89,119.87c21.97,25.27,34.93,56.57,37.25,89.95h45.22c-2.43-45.43-20.08-88.03-50.49-121.91l-21.65,21.64-10.33,10.32Z"/>
    <path class="cls-5" d="m67.26,231.58H22.05c2.43,45.41,20.08,88.01,50.49,121.88l31.97-31.95c-21.97-25.25-34.93-56.54-37.25-89.93Z"/>
    <path class="cls-4" d="m87.92,368.85c33.85,30.41,76.45,48.05,121.91,50.48v-45.18c-33.39-2.32-64.68-15.28-89.93-37.25l-31.98,31.96Z"/>
    <path class="cls-5" d="m231.58,374.14v45.18c45.45-2.43,88.06-20.07,121.91-50.48l-31.98-31.96c-25.25,21.97-56.54,34.94-89.93,37.25Z"/>
    <path class="cls-4" d="m336.89,321.51l6.15,6.14,25.83,25.81c30.41-33.87,48.05-76.47,50.49-121.88h-45.21c-2.32,33.39-15.28,64.68-37.25,89.93Z"/>
    <path class="cls-5" d="m119.89,104.48c25.25-21.97,56.54-34.94,89.93-37.25V22.05c-45.43,2.43-88.03,20.07-121.91,50.48l31.97,31.95Z"/>
  </g>
</svg>